<?xml version="1.0" encoding="UTF-8"?>
<svg width="700pt" height="700pt" version="1.1" viewBox="0 0 700 700" xmlns="http://www.w3.org/2000/svg" xmlns:xlink="http://www.w3.org/1999/xlink">
 
 <g>
  <path d="m210 470.4c0 11.883 4.7188 23.277 13.121 31.68s19.797 13.121 31.68 13.121h190.4c11.883 0 23.277-4.7188 31.68-13.121s13.121-19.797 13.121-31.68v-380.8c0-11.883-4.7188-23.277-13.121-31.68s-19.797-13.121-31.68-13.121h-190.4c-11.883 0-23.277 4.7188-31.68 13.121s-13.121 19.797-13.121 31.68zm22.398-380.8v0.003906c0-5.9414 2.3633-11.641 6.5625-15.84 4.1992-4.2031 9.8984-6.5625 15.84-6.5625h190.4c5.9414 0 11.641 2.3594 15.84 6.5625 4.1992 4.1992 6.5625 9.8984 6.5625 15.84v380.8c0 5.9414-2.3633 11.641-6.5625 15.84-4.1992 4.2031-9.8984 6.5625-15.84 6.5625h-190.4c-5.9414 0-11.641-2.3594-15.84-6.5625-4.1992-4.1992-6.5625-9.8984-6.5625-15.84zm95.203 358.4c0-5.9414 2.3594-11.637 6.5586-15.84 4.2031-4.1992 9.8984-6.5586 15.84-6.5586s11.637 2.3594 15.84 6.5586c4.1992 4.2031 6.5586 9.8984 6.5586 15.84s-2.3594 11.637-6.5586 15.84c-4.2031 4.1992-9.8984 6.5586-15.84 6.5586s-11.637-2.3594-15.84-6.5586c-4.1992-4.2031-6.5586-9.8984-6.5586-15.84z"/>
  <use x="70" y="644" xlink:href="#t"/>
  <use x="90.550781" y="644" xlink:href="#d"/>
  <use x="104.359375" y="644" xlink:href="#a"/>
  <use x="123.347656" y="644" xlink:href="#j"/>
  <use x="142.242188" y="644" xlink:href="#c"/>
  <use x="155.628906" y="644" xlink:href="#a"/>
  <use x="174.617188" y="644" xlink:href="#i"/>
  <use x="204.410156" y="644" xlink:href="#h"/>
  <use x="224.453125" y="644" xlink:href="#g"/>
  <use x="252.453125" y="644" xlink:href="#f"/>
  <use x="280.3125" y="644" xlink:href="#a"/>
  <use x="299.304688" y="644" xlink:href="#e"/>
  <use x="308.902344" y="644" xlink:href="#e"/>
  <use x="318.5" y="644" xlink:href="#b"/>
  <use x="70" y="672" xlink:href="#s"/>
  <use x="82.183594" y="672" xlink:href="#d"/>
  <use x="95.992188" y="672" xlink:href="#b"/>
  <use x="115.226562" y="672" xlink:href="#r"/>
  <use x="154.152344" y="672" xlink:href="#c"/>
  <use x="167.535156" y="672" xlink:href="#q"/>
  <use x="187.46875" y="672" xlink:href="#a"/>
  <use x="216.207031" y="672" xlink:href="#p"/>
  <use x="239.640625" y="672" xlink:href="#b"/>
  <use x="258.878906" y="672" xlink:href="#o"/>
  <use x="278.8125" y="672" xlink:href="#n"/>
  <use x="308.492188" y="672" xlink:href="#m"/>
  <use x="329.015625" y="672" xlink:href="#d"/>
  <use x="342.820312" y="672" xlink:href="#b"/>
  <use x="362.058594" y="672" xlink:href="#l"/>
  <use x="371.65625" y="672" xlink:href="#a"/>
  <use x="390.648438" y="672" xlink:href="#k"/>
  <use x="407.242188" y="672" xlink:href="#c"/>
 </g>
</svg>
